# ProBuilder 4.4.0
# https://unity3d.com/unity/features/worldbuilding/probuilder
# 20.7.2021. 19:09:19

mtllib ./Body.mtl
o Body

g Body
v 0 0 0
v -2.5 0 0
v 0 2 0
v -2.5 2 0
v -2.5 0 -2.5
v -2.5 2 -2.5
v -2.5 -1.530528E-07 -3.0001
v 3.576279E-07 -5.960464E-08 -3.0001
v -2.5 2 -3.0001
v 8.406693E-08 2 -3.0001
v 0 0 -2.5
v 0 2 -2.5

vt 0 0
vt -2.5 0
vt 0 2
vt -2.5 2
vt 2.5 -1.530528E-07
vt 2.5 2
vt -8.406693E-08 2
vt 2.5 2
vt 0 -2.5
vt 2.5 -2.5
vt -2.5 -2.5
vt -2.5 -3.0001
vt 3.576279E-07 -3.0001
vt -2.499998 2
vt -2.499998 0
vt -3.000098 2
vt -3.000098 -1.530528E-07
vt 3.0001 -5.960464E-08
vt 3.0001 2
vt 0 -2.5
vt 2.5 -2.5
vt 2.5 -3.0001

vn 0 0 1
vn -1 0 0
vn 0 0 -1
vn 1 0 0
vn 0 1 0
vn 0 -1 0

usemtl Default
f 3/3/1 4/4/1 2/2/1 1/1/1
f 4/3/2 6/4/2 5/2/2 2/1/2
f 9/6/3 10/7/3 8/1/3 7/5/3
f 12/8/4 3/3/4 1/1/4 11/5/4
f 12/9/5 6/10/5 4/5/5 3/1/5
f 1/1/6 2/2/6 5/11/6 11/9/6
f 7/12/6 8/13/6 11/9/6 5/11/6
f 9/16/2 7/17/2 5/15/2 6/14/2
f 8/18/4 10/19/4 12/8/4 11/5/4
f 10/13/5 9/22/5 6/21/5 12/20/5

