# ProBuilder 4.4.0
# https://unity3d.com/unity/features/worldbuilding/probuilder
# 20.7.2021. 19:09:19

mtllib ./Flag.mtl
o Flag

g Flag
v 0 5 0
v -1 5 0
v 0 5 -5
v -1 5 -5
v 0 0 -5
v -1 0 -5
v 0 0 0
v -1 0 0
v -1 2 -2
v 0 2 -2
v -1 2 -5
v -1 0 -7.000099
v 0 0 -7.000099
v 0 2 -7.000099
v -1 2 -7.000099
v 0 2 -5
v -1 3 -2
v 0 3 -2
v -1 3 -5
v 0 3 -7.000099
v -1 3 -7.000099
v 0 5 -7.000099
v -1 5 -7.000099
v 0 3 -5

vt 0 0
vt 1 0
vt 0 -5
vt 1 -5
vt -1 -5
vt -1 0
vt -1 2
vt 0 2
vt -5 0
vt -5 2
vt -2 2
vt 1 2
vt 5 0
vt 2 2
vt 5 2
vt -1 3
vt 0 3
vt -1 5
vt 0 5
vt -5 3
vt -2 3
vt -5 5
vt 1 3
vt 1 5
vt 2 3
vt 5 3
vt 5 5
vt 7.000099 3
vt 7.000099 5
vt 0 -7.000099
vt 1 -7.000099
vt -7.000099 5
vt -7.000099 3
vt -7.000099 2
vt 7.000099 2
vt -7.000099 0
vt 7.000099 0
vt -1 -7.000099

vn 0 1 0
vn 0 -1 0
vn 0 0.7071068 0.7071068
vn -1 0 0
vn 0 0 -1
vn 1 0 0
vn 0 0 1
vn 0 -0.7071068 0.7071068

usemtl Red
f 3/3/1 4/4/1 2/2/1 1/1/1
f 7/1/2 8/6/2 6/5/2 5/3/2
f 10/8/3 9/7/3 8/6/3 7/1/3
f 9/11/4 11/10/4 6/9/4 8/1/4
f 12/2/5 15/12/5 14/8/5 13/1/5
f 5/13/6 16/15/6 10/14/6 7/1/6
f 18/17/7 17/16/7 9/7/7 10/8/7
f 1/19/8 2/18/8 17/16/8 18/17/8
f 17/21/4 19/20/4 11/10/4 9/11/4
f 2/19/4 4/22/4 19/20/4 17/21/4
f 15/12/5 21/23/5 20/17/5 14/8/5
f 21/23/5 23/24/5 22/19/5 20/17/5
f 16/15/6 24/26/6 18/25/6 10/14/6
f 24/26/6 3/27/6 1/19/6 18/25/6
f 20/28/6 22/29/6 3/27/6 24/26/6
f 22/30/1 23/31/1 4/4/1 3/3/1
f 23/32/4 21/33/4 19/20/4 4/22/4
f 21/33/4 15/34/4 11/10/4 19/20/4
f 14/35/6 20/28/6 24/26/6 16/15/6
f 15/34/4 12/36/4 6/9/4 11/10/4
f 13/37/6 14/35/6 16/15/6 5/13/6
f 12/38/2 13/30/2 5/3/2 6/5/2

